<svg width="478" height="416" version="1.1" xmlns="http://www.w3.org/2000/svg" xmlns:xlink="http://www.w3.org/1999/xlink"><defs><filter id="c" x="-8.8%" y="-4.9%" width="117.5%" height="113.7%"><feOffset dy="5" in="SourceAlpha" result="shadowOffsetOuter1"/><feGaussianBlur in="shadowOffsetOuter1" result="shadowBlurOuter1" stdDeviation="5"/><feColorMatrix in="shadowBlurOuter1" values="0 0 0 0 0.285332669 0 0 0 0 0.363695184 0 0 0 0 0.811480978 0 0 0 0.0830692745 0"/></filter><filter id="c-2" x="-.088" y="-.049" width="1.175" height="1.137"><feOffset dy="5" in="SourceAlpha" result="shadowOffsetOuter1"/><feGaussianBlur in="shadowOffsetOuter1" result="shadowBlurOuter1" stdDeviation="5"/><feColorMatrix in="shadowBlurOuter1" values="0 0 0 0 0.285332669 0 0 0 0 0.363695184 0 0 0 0 0.811480978 0 0 0 0.0830692745 0"/></filter></defs><path d="m8 0h334c4.432 0 8 3.568 8 8v330c0 4.432-3.568 8-8 8h-334c-4.432 0-8-3.568-8-8v-330c0-4.432 3.568-8 8-8z" fill="#e8eaf6"/><path d="m259 138h184c4.432 0 8 3.568 8 8v239c0 4.432-3.568 8-8 8h-184c-4.432 0-8-3.568-8-8v-239c0-4.432 3.568-8 8-8z" fill-rule="evenodd" filter="url(#c-2)"/><path d="m8 0c-4.432 0-8 3.568-8 8v16.338 26.662 8h8 334 8v-8-26.662-16.338c0-4.432-3.568-8-8-8h-334z" fill="#242a45" stroke-linecap="round" stroke-linejoin="round" stroke-width="4.3262" style="paint-order:stroke fill markers"/><g fill="#fff" fill-rule="evenodd"><path d="m54.47 30.197a16 16 0 0 1-16 16 16 16 0 0 1-16-16 16 16 0 0 1 16-16 16 16 0 0 1 16 16" opacity=".245"/><path d="m72.47 20.197h114c1.662 0 3 1.338 3 3s-1.338 3-3 3h-114c-1.662 0-3-1.338-3-3s1.338-3 3-3z" opacity=".75"/><path d="m72.47 34.197h58c1.662 0 3 1.338 3 3s-1.338 3-3 3h-58c-1.662 0-3-1.338-3-3s1.338-3 3-3z" opacity=".25"/></g><g fill-rule="evenodd"><path d="m31 138h184c4.432 0 8 3.568 8 8v239c0 4.432-3.568 8-8 8h-184c-4.432 0-8-3.568-8-8v-239c0-4.432 3.568-8 8-8z" filter="url(#c)"/><path d="m27.796 136.4h184c4.432 0 8 3.568 8 8v239c0 4.432-3.568 8-8 8h-184c-4.432 0-8-3.568-8-8v-239c0-4.432 3.568-8 8-8z" fill="#fff"/><path d="m98.683 173h95.317c1.662 0 3 1.338 3 3s-1.338 3-3 3h-95.317c-1.662 0-3-1.338-3-3s1.338-3 3-3z" fill="#242a45" opacity=".5"/><path d="m82 183a16 16 0 0 1-16 16 16 16 0 0 1-16-16 16 16 0 0 1 16-16 16 16 0 0 1 16 16" fill="#5267df"/><path d="m98.683 187h48.036c1.662 0 3 1.338 3 3s-1.338 3-3 3h-48.036c-1.662 0-3-1.338-3-3s1.338-3 3-3z" fill="#242a45" opacity=".25"/><path d="m82 239a16 16 0 0 1-16 16 16 16 0 0 1-16-16 16 16 0 0 1 16-16 16 16 0 0 1 16 16" fill="#5267df"/><path d="m98.683 229h95.317c1.662 0 3 1.338 3 3s-1.338 3-3 3h-95.317c-1.662 0-3-1.338-3-3s1.338-3 3-3z" fill="#242a45" opacity=".5"/><path d="m98.683 243h48.036c1.662 0 3 1.338 3 3s-1.338 3-3 3h-48.036c-1.662 0-3-1.338-3-3s1.338-3 3-3z" fill="#242a45" opacity=".25"/><path d="m82 295a16 16 0 0 1-16 16 16 16 0 0 1-16-16 16 16 0 0 1 16-16 16 16 0 0 1 16 16" fill="#5267df"/><path d="m98.683 285h95.317c1.662 0 3 1.338 3 3s-1.338 3-3 3h-95.317c-1.662 0-3-1.338-3-3s1.338-3 3-3z" fill="#242a45" opacity=".5"/><path d="m98.683 299h48.036c1.662 0 3 1.338 3 3s-1.338 3-3 3h-48.036c-1.662 0-3-1.338-3-3s1.338-3 3-3z" fill="#242a45" opacity=".25"/><path d="m82 351a16 16 0 0 1-16 16 16 16 0 0 1-16-16 16 16 0 0 1 16-16 16 16 0 0 1 16 16" fill="#5267df"/><path d="m98.683 341h95.317c1.662 0 3 1.338 3 3s-1.338 3-3 3h-95.317c-1.662 0-3-1.338-3-3s1.338-3 3-3z" fill="#242a45" opacity=".5"/><path d="m98.683 355h48.036c1.662 0 3 1.338 3 3s-1.338 3-3 3h-48.036c-1.662 0-3-1.338-3-3s1.338-3 3-3z" fill="#242a45" opacity=".25"/><path d="m259 138h184c4.432 0 8 3.568 8 8v239c0 4.432-3.568 8-8 8h-184c-4.432 0-8-3.568-8-8v-239c0-4.432 3.568-8 8-8z" fill="#fff"/><path d="m35 85h221c4.432 0 8 3.568 8 8v18c0 4.432-3.568 8-8 8h-221c-4.432 0-8-3.568-8-8v-18c0-4.432 3.568-8 8-8z" fill="#fff"/></g><path d="m419 217 49 49" fill="none" stroke="#5267df" stroke-linecap="round" stroke-linejoin="round" stroke-width="20"/><g fill-rule="evenodd"><path d="m322.68 173h95.317c1.662 0 3 1.338 3 3s-1.338 3-3 3h-95.317c-1.662 0-3-1.338-3-3s1.338-3 3-3z" fill="#242a45" opacity=".5"/><path d="m306 183a16 16 0 0 1-16 16 16 16 0 0 1-16-16 16 16 0 0 1 16-16 16 16 0 0 1 16 16" fill="#5267df"/><path d="m322.68 187h48.036c1.662 0 3 1.338 3 3s-1.338 3-3 3h-48.036c-1.662 0-3-1.338-3-3s1.338-3 3-3z" fill="#242a45" opacity=".25"/><path d="m306 239a16 16 0 0 1-16 16 16 16 0 0 1-16-16 16 16 0 0 1 16-16 16 16 0 0 1 16 16" fill="#f95858"/><path d="m322.68 229h95.317c1.662 0 3 1.338 3 3s-1.338 3-3 3h-95.317c-1.662 0-3-1.338-3-3s1.338-3 3-3z" fill="#242a45" opacity=".5"/><path d="m439 169a67 67 0 0 1-67 67 67 67 0 0 1-67-67 67 67 0 0 1 67-67 67 67 0 0 1 67 67" fill="#495dcf" fill-opacity=".2" stroke="#5267df" stroke-width="20"/><path d="m322.68 243h48.036c1.662 0 3 1.338 3 3s-1.338 3-3 3h-48.036c-1.662 0-3-1.338-3-3s1.338-3 3-3z" fill="#242a45" opacity=".25"/><path d="m306 295a16 16 0 0 1-16 16 16 16 0 0 1-16-16 16 16 0 0 1 16-16 16 16 0 0 1 16 16" fill="#5267df"/><path d="m322.68 285h95.317c1.662 0 3 1.338 3 3s-1.338 3-3 3h-95.317c-1.662 0-3-1.338-3-3s1.338-3 3-3z" fill="#242a45" opacity=".5"/><path d="m322.68 299h48.036c1.662 0 3 1.338 3 3s-1.338 3-3 3h-48.036c-1.662 0-3-1.338-3-3s1.338-3 3-3z" fill="#242a45" opacity=".25"/><path d="m306 351a16 16 0 0 1-16 16 16 16 0 0 1-16-16 16 16 0 0 1 16-16 16 16 0 0 1 16 16" fill="#5267df"/><path d="m322.68 341h95.317c1.662 0 3 1.338 3 3s-1.338 3-3 3h-95.317c-1.662 0-3-1.338-3-3s1.338-3 3-3z" fill="#242a45" opacity=".5"/><path d="m322.68 355h48.036c1.662 0 3 1.338 3 3s-1.338 3-3 3h-48.036c-1.662 0-3-1.338-3-3s1.338-3 3-3z" fill="#242a45" opacity=".25"/></g></svg>
