<svg width="536" height="346" version="1.1" xmlns="http://www.w3.org/2000/svg" xmlns:xlink="http://www.w3.org/1999/xlink"><defs><rect id="a" width="536" height="346" rx="8"/><mask id="b" fill="#fff"><use xlink:href="#a"/></mask></defs><path d="m8 0h520c4.432 0 8 3.568 8 8v330c0 4.432-3.568 8-8 8h-520c-4.432 0-8-3.568-8-8v-330c0-4.432 3.568-8 8-8z" fill="#e8eaf6" stroke-linecap="round" stroke-linejoin="round" stroke-width="8.1229" style="paint-order:stroke fill markers"/><path d="m8 0c-4.432 0-8 3.568-8 8v17.158 33.842h536v-33.842-17.158c0-4.432-3.568-8-8-8z" fill="#242a45" stroke-linecap="round" stroke-linejoin="round" stroke-width="5.8716" style="paint-order:stroke fill markers"/><g transform="translate(22.47,14.197)" fill="#fff" fill-rule="evenodd"><circle cx="16" cy="16" r="16" opacity=".245"/><circle cx="477" cy="16" r="16" opacity=".104"/><g transform="translate(47,6)"><rect width="120" height="6" rx="3" opacity=".75"/><rect y="14" width="64" height="6" rx="3" opacity=".25"/></g></g><g fill="none" fill-rule="evenodd"><g mask="url(#b)"><g transform="translate(57,93)"><rect width="261" height="316" rx="8" fill="#fff"/><rect x="295" width="128" height="316" rx="8" fill="#fff"/><rect x="78.47" y="38.197" width="120" height="6" rx="3" fill="#242a45" opacity=".5"/></g></g><g transform="translate(88.47 115.2)"><circle cx="16" cy="26" r="16" fill="#f98e5d"/><g fill="#242a45"><rect x="284" width="88" height="6" rx="3" opacity=".25"/><rect x="284" y="20" width="88" height="6" rx="3" opacity=".25"/><rect x="284" y="40" width="88" height="6" rx="3" opacity=".25"/><rect x="284" y="60" width="88" height="6" rx="3" opacity=".25"/><rect x="284" y="94" width="88" height="6" rx="3" opacity=".25"/><rect x="284" y="114" width="88" height="6" rx="3" opacity=".25"/><rect x="284" y="134" width="88" height="6" rx="3" opacity=".25"/><rect x="47" y="30" width="64" height="6" rx="3" opacity=".25"/></g></g><g transform="translate(88.47 181.2)"><circle cx="16" cy="16" r="16" fill="#6ac6d6"/><rect x="47" y="6" width="120" height="6" rx="3" fill="#242a45" opacity=".5"/><rect x="47" y="20" width="64" height="6" rx="3" fill="#242a45" opacity=".25"/></g><g transform="translate(88.47 237.2)"><circle cx="16" cy="16" r="16" fill="#a47ed4"/><rect x="47" y="6" width="120" height="6" rx="3" fill="#242a45" opacity=".5"/><rect x="47" y="20" width="64" height="6" rx="3" fill="#242a45" opacity=".25"/></g><g transform="translate(88.47 293.2)"><circle cx="16" cy="16" r="16" fill="#ec7878"/><rect x="47" y="6" width="120" height="6" rx="3" fill="#242a45" opacity=".5"/><rect x="47" y="20" width="64" height="6" rx="3" fill="#242a45" opacity=".25"/></g></g></svg>
