<svg xmlns="http://www.w3.org/2000/svg" xmlns:xlink="http://www.w3.org/1999/xlink" height="380" width="440" xmlns:v="https://vecta.io/nano"><style><![CDATA[.B{fill-rule:evenodd}.C{fill:#fff}.D{fill:#fa9e89}.E{fill:#f4f2f9}.F{fill:#306299}.G{fill:#6397d9}.H{fill:#4ec9b4}]]></style><defs><path d="M0 .048h349.781V296H0z" id="A"/><path d="M0 .048h157.825v219.844H0z" id="B"/><mask id="C" class="C"><use xlink:href="#A"/></mask><path id="D" d="M374 282c0 3.866 12.984 7 29 7s29-3.134 29-7-12.984-7-29-7-29 3.134-29 7"/></defs><path d="M8 0h334c4.432 0 8 3.568 8 8v330c0 4.432-3.568 8-8 8H8c-4.432 0-8-3.568-8-8V8c0-4.432 3.568-8 8-8z" fill="#e8eaf6"/><path d="M8 0C3.568 0 0 3.568 0 8v51h350V8c0-4.432-3.568-8-8-8z" fill="#242a45" paint-order="stroke fill markers"/><g class="B C"><circle opacity=".245" r="16" cy="30.197" cx="38.47"/><rect y="20.197" x="69.47" rx="3" opacity=".75" height="6" width="120"/><rect x="69.47" rx="3" opacity=".25" y="34.197" height="6" width="64"/><rect width="237" height="34" x="27" y="85" rx="8"/><rect width="237" height="34" x="27" y="133" rx="8"/><rect width="237" height="34" x="27" y="181" rx="8"/><rect width="237" height="34" x="27" y="229" rx="8"/><rect width="237" height="34" x="27" y="277" rx="8"/></g><path transform="matrix(-1 0 0 1 440 83)" mask="url(#C)" d="M348.707 250.34c-.67 2.018-1.715 3.998-3.174 5.935-25.202 33.474-119.376 44.632-212.224 37.814-48.476-3.562-82.67-24.526-104.281-43.75a175.95 175.95 0 0 1-13.36-13.222c-4.669-5.145-8.313-10.86-10.91-16.895-7.647-17.778-6.174-38.316 5.123-55.161 9.577-14.276 22.722-24.824 29.513-36.543C52.326 106.2-16.043 49.782 28.448 14.138 44.152 1.554 77.608-1.35 114.11.602c44.428 2.378 93.365 11.955 120.284 20.045 55.712 16.737 90.58 40.98 98.539 68.256s-13.311 39.618-31.88 65.654c-17.495 24.526 58.553 62.997 47.654 95.783" fill="#3a499e" class="B"/><path d="M185.451 173.872L202.436 171 205 186.799 184 193z" class="B F"/><path d="M203 172.118s13.176-.348 27-6.118l-6.496 12.254L204.751 184z" class="B D"/><g transform="matrix(-1 0 0 1 438 85)" class="B C"><mask id="E"><use xlink:href="#B"/></mask><path opacity=".152" mask="url(#E)" d="M157.066 52.186C148.954 92.345 11.06 153.876 4.43 219.892c-7.118-17.752-5.747-38.258 4.77-55.078 8.914-14.255 21.15-24.787 27.471-36.489 12.039-22.282-51.605-78.618-10.19-114.208C41.1 1.552 72.242-1.348 106.221.602c10.344 2.364 58.164 15.331 50.845 51.584"/></g><path opacity=".149" d="M88.18 326c-.985 7.866 2.34 13.336 3.64 15.227 22.429 32.672 144.494 43.563 227.13 36.908 43.146-3.476 78.505-25.715 100.05-50.22z" class="B"/><path opacity=".128" d="M366.373 329.812s10.077.61 9.922 3.66-6.511 9.758-6.511 9.758l9.509-3.405L408 338.732l-3.1 2.669s-23.127 1.067-24.16 1.88-14.264 10.776-16.537 11.182-146.688.225-146.688.225-14.858.589-17.339-3.986-11.472-4.27-13.953-.305S184.087 369 184.087 369l-7.166-1.931C153.356 357.106 127 326 127 326z" class="B"/><path d="M397 290.695l-14.45 49.163s-2.056 2.444-3.55.18L388.714 290zM416.866 289L424 322.138 420.603 326 411 289.954z" fill="#162f44" class="B"/><path d="M204.507 300.082l-7.024 39.869 7.136 1.049s15.971-39.344 17.33-48.787S196.804 245 196.804 245l-28.768 2.448c-.761 8.219 10.744 23.711 21.027 35.77 8.101 9.499 15.444 16.864 15.444 16.864" class="B E"/><path d="M204.12 298.535l-6.877 39.767 2.146.321.073.377.08-.352c.875-3.83 11.14-37.737 11.452-44.648.333-7.326-14.027-30-14.027-30L189 281.714c7.93 9.474 15.12 16.82 15.12 16.82" fill="#e0dfea" class="B"/><path d="M166 249l28.667-2.387L196 198.886S189 174 181.333 174c-4.553 0-8.986 1.804-11.7 6.195-1.853 3.003-2.903 7.22-2.633 12.896.61 12.777-.73 48.907-.967 55.022L166 249" class="B G"/><path d="M173.885 245.276l-.538-56.818 6.653-13.52-7.763-.938-2.729 3.21c-1.79 3.003-2.803 7.22-2.542 12.894.589 12.774-.737 49.782-.966 55.896z" fill="#8bbff7" class="B"/><path d="M174 190l21.017 40 .546-17.991.437-14.598L178.476 190z" class="B F"/><path d="M227.671 353H356.33c4.789 0 8.671-3.908 8.671-8.73V123.73c0-4.822-3.882-8.73-8.671-8.73H227.67c-4.789 0-8.671 3.908-8.671 8.73v220.54c0 4.822 3.882 8.73 8.671 8.73" class="B C"/><path d="M227 146.29v88.42c0 1.818 1.456 3.29 3.253 3.29h123.494c1.797 0 3.253-1.472 3.253-3.29v-88.42c0-1.818-1.456-3.29-3.253-3.29H230.253c-1.797 0-3.253 1.472-3.253 3.29" fill="#e4dcf1" class="B"/><path d="M291.147 167l1.552 1.183L296 182.554l-.071 2.367-5.227.079a1.97 1.97 0 0 1-1.03-.25c-1.495-.878-2.133-3.325-1.308-5.493.444-1.166 1.581-3.23 1.713-4.142l1.07-8.115" fill="#8e2b43" class="B"/><path d="M264 241l56.019-.214s6.487-30.649-4.016-42.461c-2.558-2.874-5.883-4.993-9.506-6.37-11.273-4.297-25.453-1.455-28.493 7.966C273.988 212.372 264 241 264 241" class="B H"/><path d="M306.16 192.489s-2.215 6.026-7.103 7.294-10.489-3.224-10.03-8.457c0 0 4.684-.687 5.447-2.96.928-2.76.306-2.854.306-2.854s-1.833-3.49-2.444-6.026.305-12.37 4.582-13.32c2.705-.602 7.027.317 10.082 4.757 0 0-1.528 8.563-3.666 12.686s-3.208 6.026 2.826 8.88" class="B D"/><path opacity=".184" d="M230.167 116.013L363 302.239v42.244c0 4.704-3.7 8.517-8.263 8.517H234.573c-5.287 0-9.573-4.418-9.573-9.869V119.827c0-2.929 2.33-3.956 5.167-3.814" class="B E"/><path d="M270 222.442L263.018 192 252 193.816 262.684 238z" class="B H"/><path d="M260.8 191.137l-.6-3.106s1.8-1.184 1.5-2.959.3-5.917.3-5.917-.957-.647-1.575.518c-.44.829-1.125 2.737-1.125 2.737l-2.826-7.79c-.225-.691-.452-1.767-.975-1.603-.275.086-.175.715-.128 1.33.14 1.844.928 4.784.928 4.784l-.4.234-1.663-5.276c-.073-.256-.193-.644-.462-.665-.238-.02-.475.11-.475.702 0 1.184 1.275 6.077 1.275 6.077l-.319.219-1.935-4.278c-.133-.323-.613-.295-.695.044-.065.268-.046.65.173 1.192.6 1.48 1.2 3.846 1.2 3.846l-.15.173-1.05-2.17c-.188-.347-.649-.57-.783-.2-.188.518 1.458 4.97 1.458 5.267s1.126 4.326 2.326 4.622 1.275 3.082 1.275 3.082z" class="B D"/><path d="M330.351 264h22.299c1.298 0 2.351-1.072 2.351-2.394v-3.212c0-1.322-1.053-2.394-2.351-2.394h-22.298c-1.298 0-2.351 1.072-2.351 2.394v3.212c0 1.322 1.053 2.394 2.351 2.394m-32 0h22.298c1.298 0 2.351-1.072 2.351-2.394v-3.212c0-1.322-1.053-2.394-2.351-2.394h-22.298c-1.298 0-2.351 1.072-2.351 2.394v3.212c0 1.322 1.053 2.394 2.351 2.394m-34 0h22.298c1.298 0 2.351-1.072 2.351-2.394v-3.212c0-1.322-1.053-2.394-2.351-2.394h-22.297c-1.299 0-2.352 1.072-2.352 2.394v3.212c0 1.322 1.053 2.394 2.352 2.394m-32 0h22.297c1.298 0 2.351-1.072 2.351-2.394v-3.212c0-1.322-1.053-2.394-2.351-2.394h-22.298c-1.298 0-2.351 1.072-2.351 2.394v3.212c0 1.322 1.053 2.394 2.351 2.394" fill="#ffdedd" class="B"/><path d="M234.547 283h117.906c1.407 0 2.547-1.08 2.547-2.41v-3.18c0-1.33-1.14-2.41-2.547-2.41H234.547c-1.407 0-2.547 1.08-2.547 2.41v3.18c0 1.33 1.14 2.41 2.547 2.41m117.906 16c1.407 0 2.547-1.08 2.547-2.41v-3.18c0-1.33-1.14-2.41-2.547-2.41H234.547c-1.407 0-2.547 1.08-2.547 2.41v3.18c0 1.33 1.14 2.41 2.547 2.41zm-117.906 16h117.906c1.407 0 2.547-1.08 2.547-2.41v-3.18c0-1.33-1.14-2.41-2.547-2.41H234.547c-1.407 0-2.547 1.08-2.547 2.41v3.18c0 1.33 1.14 2.41 2.547 2.41m0 13h117.906c1.407 0 2.547-1.08 2.547-2.41v-3.18c0-1.33-1.14-2.41-2.547-2.41H234.547c-1.407 0-2.547 1.08-2.547 2.41v3.18c0 1.33 1.14 2.41 2.547 2.41" class="B E"/><path d="M309.222 163.321s-6.3-8.848-18.19-3.725 1.017 13.504 1.017 13.504.254-3.26 2.134-4.191l-.153 2.897 6.656 1.165 1.067-2.794.686 3.182 3.353 1.241s-2.743 9.624-4.344 11.021c0 0-.686 2.25-.457 2.716s10.364 3.027 11.66.699-1.372-5.588-2.21-7.761 1.524-13.711-1.22-17.954" fill="#fc516b" class="B"/><path d="M338.352 139h17.296c1.299 0 2.352-1.343 2.352-3s-1.053-3-2.352-3h-17.296c-1.299 0-2.352 1.343-2.352 3s1.053 3 2.352 3" fill="#e4dcf1" class="B"/><path d="M312 211s-2.664 19.286-5.71 27h-16.06s-2.648-8.138 10.047-10.8C309.107 225.349 312 211 312 211m-31.611-5s-3.26 10-2.648 13 3.259 5.2 3.259 7.2-1.63 9.6-1.63 9.6l-9.37.2s1.556-.266 5.093-3.05c5.398-4.25.764-13.625 1.91-18.95.6-2.794 3.386-8 3.386-8M270 221.772s-.213 8.383-1.915 7.093-.638-13.757-2.127-18.056L260 192.752l3.83-.752z" fill="#44ad99" class="B"/><path d="M244.623 183.475s-1.576.692-3.5 3.046c-.636.78-4.03 2.021-4.833 2.988-11.645 14.02-27.196 24.841-37.163 20.533C186.397 204.54 184 199.424 184 199.424l8.414-11.362s9.663 14.759 17.434 10.739 23.092-14.557 23.092-14.557l.406-6.464s.895-.24 1.324.995.45 2.304.45 2.304l6.049-7.024s1.162-.36.808.769-2.491 4.368-2.491 4.368-.22.616.243.335c.54-.327 4.766-5.092 4.766-5.092s.973-.064.576.866c-.307.717-2.865 4.09-3.73 5.354-.258.376.282.235.282.235l3.496-2.97c.473-.319.963-.213.87.368-.075.46-1.027 1.519-1.593 1.939-1.414 1.046-2.4 2.952-2.4 2.952l3.044-1.1s.595.528-.417 1.396M173 146.49l3.85 28.32 12.646 2.19s-.64-.668-1.372-1.56c-.748-.907-1.59-2.05-1.963-2.966-.85-2.104-.856-4.066-.856-4.066s5.608.633 6.477-2.595-1.143-18.284-1.143-18.284-2.503-9.459-17.639-1.039" class="B D"/><path d="M183.613 146.812s6.236 4.71 12.219.698c0 0-3.792-.35-4.972-2.268 0 0 2.36.61 5.14-3.314 0 0-4.887.698-6.572-.785s-10.28-3.838-15.42-.262-5.057 6.193-5.057 6.193-3.033 1.133-2.95 2.878 7.5 16.048 7.5 16.048l1.601-6.367s-1.264.378-2.022-2.587 2.528-1.687 2.865-1.076 2.528-4.187 2.528-4.187l-.337-2.79s-1.096-3.577 5.477-2.18" fill="#261f27" class="B"/><path d="M171.786 279.384c3.591 14.487-3.05 72.409-3.05 72.409l6.498 1.207c26.16-60.015 20.176-109 20.176-109L166 246.414s.075-1.224.106-.934c.338 3.008 2.408 20.689 5.68 33.904" class="B C"/><path d="M204.27 337.076l7.553 5.859s2.975-.359 3.548 1.016.629 2.93.629 2.93l-7.896.119L195 341.799l2.06-5.799zm-29.82 17.264l5.365 7.852c.905 1.186 3.117 1.701 3.978 4.595.74 2.49-.74 4.213-.74 4.213s-4.965-.894-8.419-3.957-8.634-8.937-8.634-8.937l1.418-5.106 7.031 1.34z" class="B G"/><use xlink:href="#D" fill="#224a7d" class="B"/><use xlink:href="#D" y="-1" class="B G"/><path d="M395 277c0 1.657 5.373 3 12 3s12-1.343 12-3-5.373-3-12-3-12 1.343-12 3m37 3v3.986s-.07 2.464-5 4.014l1.179-4.318s3.463-1.495 3.821-3.682" fill="#162f44" class="B"/><path d="M374.006 280v4.085s-.39 2.043 4.994 3.915l-1.652-4.766s-2.86-1.277-3.342-3.234" fill="#8cc5f2" class="B"/><path d="M393 267.038l1.968 7.69c.488 1.914 2.423 3.272 4.653 3.272h4.233c1.585 0 3.025-.685 3.9-1.772a-4.02 4.02 0 0 0 .692-1.278L411 267z" fill="#fc516b" class="B"/><path d="M393 266c0 .552 4.03 1 9 1s9-.448 9-1-4.03-1-9-1-9 .448-9 1" fill="#9b293f" class="B"/><path d="M405.406 276.657l-1 .343 2.11-.324a-4.41 4.41 0 0 0 .657-1.35L409 269s-4.215 1.242-8 .818c1.231.164 4.31.412 6.168.32a-.724.724 0 0 1 .764.815c-.234 1.657-.905 5.074-2.526 5.704" fill="#f995a9" class="B"/><path d="M401 263.901l.679 3.087.494.012s.028-3.099 3.674-5 3.127-9 3.127-9l-.003.009c-.088.183-1.488 3.1-2.549 3.29-1.094.202-1.773 1.95-1.773 1.95s-.522.75-1.147.6-1.251 1.5-1.251 1.5l-.207 1.752z" fill="#51a595" class="B"/><path d="M405.993 269.987s.7-23.436-11.6-29.987c0 0-3.501 1.352.6 6.967s.799 9.67 2.6 11.127 4.4 2.391 4 4.263.1 3.744.9 3.952 2.6 1.312 2.88 3.691z" class="B H"/><path d="M406 265.8l.04 1.188.538.012s.03-3.099 3.994-5 3.4-9 3.4-9l-.004.009-.336 1.068c0 6.45-3.723 7.787-5.212 8.648S406 265.8 406 265.8" fill="#41877a" class="B"/><path d="M186.185 177.105s-10.552.172-11.494-1.105l-.691 1.898s8.36 4.557 14 2.624z" class="B F"/><path d="M201 190.916L188.412 205s-16.822-15.082-16.404-19.81 6.58-14.515 16.034-5.523C197.24 188.415 201 190.916 201 190.916" fill="#8cc5f2" class="B"/><path d="M168.565 352.654l2.566.346s12.026-42.47 8.07-73.847c-1.189-9.434-5.344-33.153-5.344-33.153l-7.857.737c.318 3.023 2.357 19.855 5.426 33.137 3.367 14.562-2.86 72.78-2.86 72.78" class="B E"/><path d="M182.253 175.558c1.488.324 2.299.427 2.747.442-.698-.966-1.484-2.182-1.832-3.158-.793-2.241-.799-4.33-.799-4.33s-2.971-.782-3.277-.413 0 6.77 3.161 7.459" fill="#e6846f" class="B"/><path d="M328 179c0 10.492 8.048 19 17.973 19 4.156 0 7.981-1.491 11.027-3.996v-30.008c-3.046-2.506-6.87-3.996-11.027-3.996-9.925 0-17.973 8.508-17.973 19" fill="#cec3e2" class="B"/><path d="M328 179.5c0 10.216 7.493 18.5 16.734 18.5 3.87 0 7.43-1.452 10.266-3.89v-29.22c-2.835-2.437-6.397-3.89-10.266-3.89-9.241 0-16.734 8.284-16.734 18.5" fill="#c3b8d8" class="B"/><path d="M302 196.096l2.298-1.305c.314-.199 4.39.902 9.826 6.516s.73 10.324 3.028 13.33.107 9.323-1.044 13.635 0 9.722 0 9.722l.06.006 1.821-.006s6.584-28.868-4.075-39.995c-2.596-2.706-5.97-4.703-9.647-5.999z" fill="#44ad99" class="B"/></svg>